<!-- Generated by IcoMoon.io -->
<svg version="1.1" xmlns="http://www.w3.org/2000/svg" width="1024" height="1024" viewBox="0 0 1024 1024">
<title></title>
<g id="icomoon-ignore">
</g>
<path fill="#000" d="M1023.998 315.504l-123.157 15.221c-70.573-152.216-225.557-250.464-394.378-250.464-210.335 0-384.692 148.064-422.053 352.864l-84.41 9.686v265.685l116.239-15.221c70.573 152.216 221.405 250.464 390.226 250.464 210.335 0 388.843-148.064 427.59-352.864l89.946-9.686v-265.685zM505.080 106.552c154.983 0 296.13 88.562 363.936 226.941l-759.697 95.481c38.747-188.194 202.031-322.422 395.762-322.422zM505.080 916.064c-154.983 0-296.13-88.562-363.936-226.941l761.081-94.098c-40.129 188.194-203.415 321.037-397.145 321.037zM996.323 556.28l-968.648 121.774v-210.335l51.2-11.071h-1.383l745.86-91.329 172.973-19.373v210.335z"></path>
<path fill="#000" d="M363.956 508.858l12.722-2.147 9.331 55.291-12.722 2.147z"></path>
<path fill="#000" d="M434.654 533.216l0.611 3.625-29.742 5.020q1.218 4.399 4.366 6.17t8.123 0.93q4.015-0.678 8.011-2.557 4.026-1.922 8.059-5.087l1.655 9.807q-4.225 2.468-8.593 4.081-4.364 1.65-8.875 2.412-10.803 1.823-17.732-2.636-6.899-4.5-8.572-14.413-1.644-9.736 3.278-16.304 4.957-6.574 15.262-8.314 9.38-1.583 15.949 3.118 6.603 4.696 8.199 14.148zM420.866 531.195q-0.611-3.625-3.114-5.468-2.474-1.885-5.885-1.309-3.696 0.624-5.653 3.109-1.962 2.451-1.87 6.457z"></path>
<path fill="#000" d="M435.897 512.65l12.722-2.147 14.556 25.83 5.236-29.171 12.757-2.154-8.952 42.443-13.965 2.357z"></path>
<path fill="#000" d="M531.448 516.88l0.611 3.625-29.742 5.020q1.218 4.399 4.366 6.17t8.123 0.93q4.015-0.678 8.011-2.557 4.026-1.922 8.059-5.087l1.655 9.807q-4.225 2.468-8.593 4.081-4.364 1.65-8.875 2.412-10.803 1.823-17.732-2.636-6.899-4.5-8.572-14.413-1.644-9.736 3.278-16.304 4.957-6.574 15.262-8.314 9.38-1.583 15.949 3.118 6.603 4.696 8.199 14.148zM517.658 514.858q-0.611-3.625-3.114-5.468-2.474-1.885-5.885-1.309-3.696 0.624-5.653 3.109-1.962 2.451-1.87 6.457z"></path>
<path fill="#000" d="M535.087 479.975l12.722-2.147 9.331 55.291-12.722 2.147z"></path>
<path fill="#000" d="M617.694 493.481q5.6 0.48 8.952 3.46 3.383 2.937 4.277 8.232 1.332 7.888-4.013 13.031-5.351 5.106-16.934 7.060-4.086 0.689-8.323 0.709-4.195 0.051-8.431-0.586l-1.78-10.554q4.162 1.27 8.096 1.63 3.965 0.318 7.623-0.3 5.436-0.918 7.997-3.287 2.597-2.376 2.002-5.894-0.611-3.625-3.908-4.967-3.267-1.385-9.060-0.409l-5.473 0.924-1.487-8.812 5.756-0.971q5.152-0.87 7.405-2.893 2.247-2.060 1.689-5.365-0.515-3.056-3.25-4.312t-7.212-0.5q-3.305 0.558-6.554 1.873t-6.344 3.336l-1.69-10.020q3.858-1.82 7.743-3.061t7.722-1.888q10.34-1.745 16.033 0.803 5.721 2.507 6.873 9.327 0.785 4.655-1.163 8.054-1.954 3.363-6.548 5.38z"></path>
</svg>
