<!-- Generated by IcoMoon.io -->
<svg version="1.1" xmlns="http://www.w3.org/2000/svg" width="1024" height="1024" viewBox="0 0 1024 1024">
<title></title>
<g id="icomoon-ignore">
</g>
<path fill="#000" d="M1023.998 315.504l-123.157 15.221c-70.573-152.216-225.557-250.464-394.378-250.464-210.335 0-384.692 148.064-422.053 352.864l-84.41 9.686v265.685l116.239-15.221c70.573 152.216 221.405 250.464 390.226 250.464 210.335 0 388.843-148.064 427.59-352.864l89.946-9.686v-265.685zM505.080 106.552c154.983 0 296.13 88.562 363.936 226.941l-759.697 95.482c38.747-188.194 202.031-322.422 395.762-322.422zM505.080 916.064c-154.983 0-296.13-88.562-363.936-226.941l761.081-94.098c-40.129 188.194-203.415 321.037-397.145 321.037zM996.323 556.28l-968.649 121.774v-210.335l51.2-11.071h-1.383l745.86-91.329 172.973-19.373v210.335z"></path>
<path fill="#000" d="M88.319 527.406l1.285 11.386 13.213-1.492 1.034 9.167-13.213 1.492 1.919 17.009q0.316 2.794 1.539 3.671 1.219 0.841 4.514 0.47l6.589-0.743 1.034 9.167-10.994 1.24q-7.592 0.856-11.134-1.935-3.51-2.831-4.366-10.422l-1.919-17.009-6.373 0.72-1.034-9.167 6.373-0.72-1.285-11.386z"></path>
<path fill="#000" d="M152.787 547.547l2.756 24.422-12.892 1.454-2.102-18.619q-0.595-5.264-1.068-7.204-0.438-1.945-1.115-2.811-0.894-1.169-2.258-1.703-1.37-0.571-3.017-0.385-4.010 0.453-5.951 3.826-1.944 3.338-1.327 8.817l2.224 19.731-12.819 1.445-6.288-55.718 12.819-1.445 2.424 21.485q2.506-3.836 5.578-5.851 3.069-2.050 7.008-2.494 6.949-0.784 11.009 3.073 4.098 3.853 5.015 11.982z"></path>
<path fill="#000" d="M194.001 538.075q-1.772-0.598-3.493-0.765-1.69-0.208-3.375-0.019-4.941 0.558-7.267 4.047-2.294 3.45-1.628 9.358l2.084 18.478-12.819 1.445-4.525-40.107 12.819-1.445 0.743 6.589q2.027-4.218 5.012-6.368 3.017-2.189 7.493-2.694 0.645-0.073 1.405-0.086 0.756-0.049 2.208-0.033z"></path>
<path fill="#000" d="M219.226 532.472q-4.262 0.481-6.169 3.815-1.877 3.295-1.227 9.060t3.218 8.593q2.599 2.789 6.862 2.309 4.19-0.471 6.066-3.767 1.873-3.33 1.222-9.095t-3.215-8.56q-2.568-2.829-6.757-2.357zM218.192 523.304q10.35-1.168 16.78 3.765 6.468 4.927 7.583 14.811t-4.091 16.129q-5.171 6.241-15.52 7.409-10.385 1.173-16.886-3.752-6.468-4.927-7.583-14.811t4.091-16.129q5.241-6.248 15.626-7.42z"></path>
<path fill="#000" d="M251.967 545.279l-2.763-24.493 12.892-1.454 0.453 4.010q0.369 3.258 0.89 8.204 0.519 4.91 0.704 6.558 0.545 4.835 1.040 6.954 0.49 2.084 1.207 2.983 0.929 1.164 2.258 1.703 1.367 0.535 3.013 0.35 4.010-0.453 5.954-3.792t1.327-8.817l-2.234-19.802 12.819-1.445 4.525 40.107-12.819 1.445-0.655-5.8q-2.506 3.836-5.571 5.886-3.037 2.012-6.94 2.451-6.949 0.784-11.079-3.066-4.098-3.853-5.015-11.982z"></path>
<path fill="#000" d="M332.959 545.062q-2.252 3.807-5.255 5.816t-7.193 2.479q-7.342 0.828-12.791-4.395-5.453-5.26-6.462-14.211-1.014-8.988 3.138-15.259 4.148-6.308 11.488-7.135 4.19-0.471 7.563 0.814t6.423 4.534l-0.67-5.944 12.892-1.454 4.070 36.058q1.092 9.669-4.457 15.444-5.51 5.808-17.112 7.117-3.76 0.424-7.334 0.246t-7.252-0.959l-1.127-9.99q3.585 1.554 6.912 2.122 3.331 0.603 6.592 0.235 6.303-0.711 8.927-3.798t1.963-8.961zM321.691 521.056q-3.975 0.449-5.863 3.635t-1.28 8.557q0.621 5.515 3.094 8.137 2.468 2.586 6.587 2.122 4.010-0.453 5.899-3.64t1.287-8.522q-0.608-5.371-3.157-8.057t-6.563-2.233z"></path>
<path fill="#000" d="M396.572 520.041l2.756 24.422-12.892 1.454-2.102-18.619q-0.595-5.264-1.068-7.204-0.438-1.945-1.115-2.811-0.894-1.169-2.261-1.703-1.37-0.571-3.017-0.385-4.010 0.453-5.951 3.826-1.944 3.338-1.327 8.817l2.224 19.731-12.819 1.445-6.288-55.718 12.819-1.445 2.424 21.485q2.506-3.836 5.578-5.851 3.069-2.050 7.008-2.494 6.949-0.784 11.009 3.073 4.098 3.853 5.015 11.982z"></path>
<path fill="#000" d="M459.609 481.234l12.927-1.459 1.179 10.457-12.927 1.459zM456.96 481.53l0.949 8.416-7.089 0.8q-2.686 0.303-3.612 1.423-0.929 1.084-0.655 3.518l0.316 2.794 27.428-3.094 4.525 40.107-12.927 1.459-3.492-30.939-14.505 1.637 3.492 30.939-12.927 1.459-3.492-30.939-6.303 0.711-1.034-9.167 6.303-0.711-0.316-2.794q-0.74-6.553 2.561-10.081 3.297-3.562 10.959-4.427z"></path>
<path fill="#000" d="M517.711 501.548q-1.772-0.598-3.493-0.765-1.69-0.208-3.375-0.019-4.941 0.558-7.267 4.047-2.294 3.45-1.628 9.358l2.084 18.478-12.819 1.445-4.525-40.107 12.819-1.445 0.743 6.589q2.027-4.218 5.012-6.368 3.017-2.189 7.493-2.694 0.645-0.073 1.405-0.086 0.756-0.049 2.208-0.033z"></path>
<path fill="#000" d="M554.399 487.617l1.1 9.74q-4.312-1.253-8.239-1.68t-7.33-0.044q-3.652 0.413-5.338 1.545-1.654 1.092-1.439 2.992 0.174 1.54 1.592 2.214 1.454 0.67 4.971 0.673l2.292 0.066q9.989 0.141 13.714 2.623t4.416 8.605q0.723 6.41-3.64 10.166t-13.744 4.814q-3.975 0.449-8.309 0.285-4.294-0.131-8.912-0.88l-1.1-9.74q4.042 1.429 8.157 1.909 4.152 0.475 8.306 0.005 3.76-0.424 5.54-1.678t1.55-3.295q-0.194-1.719-1.612-2.393-1.387-0.716-5.341-0.738l-2.289-0.033q-8.68-0.108-12.444-2.622t-4.432-8.421q-0.72-6.373 3.302-9.946t13.046-4.591q3.546-0.4 7.508-0.304t8.677 0.725z"></path>
<path fill="#000" d="M579.328 472.002l1.285 11.386 13.213-1.492 1.034 9.167-13.213 1.492 1.919 17.009q0.316 2.794 1.539 3.671 1.219 0.841 4.514 0.47l6.589-0.743 1.034 9.167-10.994 1.24q-7.592 0.856-11.134-1.935-3.51-2.831-4.366-10.422l-1.919-17.009-6.373 0.72-1.034-9.167 6.373-0.72-1.285-11.386z"></path>
<path fill="#000" d="M647.666 498.163q-4.010 0.453-5.899 2.044-1.852 1.588-1.55 4.236 0.275 2.436 2.044 3.651 1.8 1.175 4.701 0.848 3.617-0.409 5.798-3.266 2.176-2.893 1.735-6.795l-0.165-1.468zM666.708 491.119l2.581 22.882-12.927 1.459-0.67-5.944q-2.166 3.945-5.199 5.99-3.037 2.012-7.657 2.532-6.231 0.703-10.542-2.473-4.279-3.216-4.934-9.017-0.798-7.054 3.667-10.894 4.499-3.846 14.884-5.015l7.556-0.853-0.114-1.004q-0.343-3.044-2.902-4.171-2.561-1.163-7.646-0.588-4.118 0.465-7.571 1.688t-6.31 3.215l-1.103-9.775q4.005-1.468 8.102-2.438 4.093-1.005 8.247-1.474 10.85-1.224 16.134 2.532 5.314 3.716 6.402 13.348z"></path>
<path fill="#000" d="M689.478 459.573l1.285 11.386 13.213-1.492 1.034 9.167-13.213 1.492 1.919 17.009q0.316 2.794 1.539 3.671 1.219 0.841 4.514 0.47l6.589-0.743 1.034 9.167-10.994 1.24q-7.592 0.856-11.134-1.935-3.51-2.831-4.366-10.422l-1.919-17.009-6.373 0.72-1.034-9.167 6.373-0.72-1.285-11.386z"></path>
<path fill="#000" d="M724.57 455.614l1.285 11.386 13.213-1.492 1.034 9.167-13.213 1.492 1.919 17.009q0.316 2.794 1.539 3.671 1.219 0.841 4.514 0.47l6.589-0.743 1.034 9.167-10.994 1.24q-7.592 0.856-11.134-1.935-3.51-2.831-4.366-10.422l-1.919-17.009-6.373 0.72-1.034-9.167 6.373-0.72-1.285-11.386z"></path>
<path fill="#000" d="M789.23 480.050l0.413 3.652-29.971 3.382q0.975 4.46 4.022 6.4t8.061 1.375q4.046-0.456 8.138-2.114 4.123-1.698 8.326-4.639l1.115 9.884q-4.354 2.232-8.805 3.605-4.446 1.409-8.995 1.922-10.885 1.227-17.559-3.601-6.642-4.871-7.771-14.861-1.107-9.811 4.167-16.1 5.309-6.293 15.694-7.464 9.452-1.064 15.754 3.988 6.336 5.051 7.41 14.576zM775.571 477.276q-0.413-3.652-2.811-5.63-2.367-2.017-5.805-1.63-3.725 0.42-5.813 2.796-2.093 2.339-2.222 6.343z"></path>
<path fill="#000" d="M834.567 461.478q2.015-3.998 5.126-6.309 3.146-2.349 7.154-2.802 6.91-0.78 11.009 3.073t5.015 11.982l2.756 24.422-12.892 1.454-2.359-20.912q-0.018-0.47-0.073-0.971-0.020-0.505-0.126-1.435-0.481-4.262-1.948-6.016-1.469-1.792-4.265-1.477-3.652 0.413-5.318 3.647-1.63 3.23-1.059 8.932l2.223 19.695-12.892 1.454-2.359-20.912q-0.751-6.66-2.112-8.429-1.365-1.804-4.301-1.473-3.687 0.415-5.35 3.686-1.665 3.235-1.031 8.856l2.224 19.731-12.892 1.454-4.525-40.107 12.892-1.454 0.663 5.874q1.979-3.668 4.83-5.731 2.886-2.065 6.574-2.483 4.153-0.468 7.568 1.178t5.468 5.076z"></path>
<path fill="#000" d="M889.827 483.241l2.377 21.056-12.819 1.445-6.248-55.359 12.819-1.445 0.663 5.874q2.252-3.807 5.29-5.819 3.032-2.047 7.223-2.518 7.412-0.836 12.842 4.536 5.426 5.335 6.472 14.61t-3.049 15.72q-4.1 6.41-11.511 7.247-4.19 0.471-7.598-0.81-3.412-1.319-6.458-4.53zM895.419 456.318q-4.118 0.465-5.995 3.758-1.844 3.255-1.203 8.947t3.169 8.492q2.559 2.757 6.678 2.292t5.928-3.715q1.844-3.255 1.198-8.983t-3.169-8.492q-2.488-2.767-6.607-2.301z"></path>
<path fill="#000" d="M938.419 431.484l1.285 11.386 13.213-1.492 1.034 9.167-13.213 1.492 1.919 17.009q0.316 2.794 1.539 3.671 1.219 0.841 4.514 0.47l6.589-0.743 1.034 9.167-10.994 1.24q-7.592 0.856-11.134-1.935-3.51-2.831-4.366-10.422l-1.919-17.009-6.373 0.72-1.034-9.167 6.373-0.72-1.285-11.386z"></path>
</svg>
