<!-- Generated by IcoMoon.io -->
<svg version="1.1" xmlns="http://www.w3.org/2000/svg" width="1024" height="1024" viewBox="0 0 1024 1024">
<title></title>
<g id="icomoon-ignore">
</g>
<path fill="#000" d="M1023.999 315.503l-123.157 15.221c-70.573-152.216-225.557-250.465-394.378-250.465-210.334 0-384.693 148.064-422.054 352.865l-84.41 9.686v265.686l116.238-15.221c70.573 152.216 221.405 250.465 390.226 250.465 210.334 0 388.843-148.064 427.59-352.865l89.946-9.686v-265.686zM505.080 106.551c154.983 0 296.13 88.562 363.936 226.941l-759.698 95.481c38.747-188.194 202.032-322.422 395.762-322.422zM505.080 916.064c-154.983 0-296.13-88.562-363.936-226.941l761.081-94.098c-40.13 188.194-203.416 321.037-397.145 321.037zM996.323 556.28l-968.649 121.774v-210.334l51.199-11.071h-1.383l745.86-91.329 172.973-19.373v210.334z"></path>
<path fill="#000" d="M363.957 508.858l12.721-2.147 9.331 55.291-12.721 2.147z"></path>
<path fill="#000" d="M434.654 533.216l0.611 3.625-29.742 5.020q1.218 4.399 4.367 6.171t8.123 0.931q4.015-0.677 8.010-2.557 4.025-1.922 8.059-5.088l1.655 9.807q-4.225 2.468-8.593 4.081-4.363 1.65-8.875 2.412-10.802 1.823-17.731-2.635-6.899-4.5-8.573-14.414-1.644-9.736 3.279-16.304 4.958-6.574 15.262-8.314 9.38-1.583 15.949 3.118 6.603 4.696 8.199 14.149zM420.866 531.194q-0.611-3.625-3.115-5.468-2.475-1.885-5.885-1.309-3.696 0.623-5.652 3.11-1.961 2.451-1.87 6.456z"></path>
<path fill="#000" d="M435.898 512.65l12.721-2.147 14.556 25.829 5.236-29.171 12.757-2.154-8.953 42.443-13.965 2.356z"></path>
<path fill="#000" d="M531.448 516.88l0.611 3.625-29.742 5.020q1.218 4.399 4.367 6.171t8.123 0.931q4.015-0.677 8.010-2.557 4.025-1.922 8.059-5.088l1.655 9.807q-4.225 2.468-8.593 4.081-4.363 1.65-8.875 2.412-10.802 1.823-17.731-2.635-6.899-4.5-8.573-14.414-1.644-9.736 3.279-16.304 4.958-6.574 15.262-8.314 9.38-1.583 15.949 3.118 6.603 4.696 8.199 14.149zM517.658 514.858q-0.611-3.625-3.115-5.468-2.475-1.885-5.885-1.309-3.696 0.623-5.652 3.11-1.961 2.451-1.87 6.456z"></path>
<path fill="#000" d="M535.087 479.975l12.721-2.147 9.331 55.291-12.721 2.147z"></path>
<path fill="#000" d="M607.889 514.211l23.346-3.941 1.698 10.056-38.554 6.507-1.698-10.056 16.481-20.36q2.198-2.784 3.064-5.231t0.458-4.865q-0.63-3.731-3.537-5.579-2.872-1.855-7.029-1.152-3.198 0.541-6.767 2.568-3.574 1.992-7.453 5.424l-1.968-11.655q4.361-2.307 8.742-3.851 4.375-1.579 8.709-2.311 9.524-1.606 15.49 1.698 6.002 3.299 7.267 10.797 0.731 4.334-0.872 8.48-1.608 4.108-7.725 11.61z"></path>
</svg>
